<svg fill="none" height="65" viewBox="0 0 64 65" width="64" xmlns="http://www.w3.org/2000/svg" xmlns:xlink="http://www.w3.org/1999/xlink"><mask id="a" height="65" maskUnits="userSpaceOnUse" width="64" x="0" y="0"><path clip-rule="evenodd" d="m0 .907471h64v63.610829h-64z" fill="#fff" fill-rule="evenodd"/></mask><g mask="url(#a)"><path clip-rule="evenodd" d="m32.0002.907471c-17.6737 0-32.0002 14.326529-32.0002 32.000229 0 15.9714 11.7019 29.2102 27.0004 31.6109v-22.3619h-8.1244v-9.249h8.1244v-7.0507c0-8.0201 4.7772-12.45 12.0861-12.45 3.5024 0 7.1638.6247 7.1638.6247v7.8751h-4.0354c-3.9745 0-5.2149 2.4668-5.2149 4.9985v6.0024h8.875l-1.4185 9.249h-7.4565v22.3619c15.2985-2.4007 27.0004-15.6395 27.0004-31.6109 0-17.6737-14.3265-32.000229-32.0002-32.000229" fill="#1877f2" fill-rule="evenodd"/></g></svg>