<svg fill="none" height="65" viewBox="0 0 64 65" width="64" xmlns="http://www.w3.org/2000/svg"><g clip-rule="evenodd" fill="#e4405f" fill-rule="evenodd"><path d="m32 .712891c-8.6916 0-9.7796.035555-13.1929.192-3.4062.156449-5.7333.696889-7.7689 1.487999-2.13507.80344-4.06921 2.06294-5.66753 3.69067-1.62742 1.59858-2.88687 3.53264-3.69067 5.66754-.791111 2.0356-1.333333 4.3627-1.488 7.7707-.1546667 3.4115-.192 4.4978-.192 13.1911s.0355556 9.7795.192 13.1929c.156444 3.4062.696889 5.7333 1.488 7.7689.80344 2.1351 2.06294 4.0692 3.69067 5.6675 1.77777 1.7778 3.56444 2.8729 5.66753 3.6907 2.0356.7911 4.3627 1.3333 7.7689 1.488 3.4133.1547 4.5013.192 13.1929.192s9.7796-.0356 13.1929-.192c3.4062-.1565 5.7333-.6969 7.7689-1.488 2.135-.8035 4.0692-2.063 5.6675-3.6907 1.7778-1.7778 2.8729-3.5644 3.6907-5.6675.7911-2.0356 1.3333-4.3627 1.488-7.7689.1547-3.4134.192-4.5014.192-13.1929 0-8.6916-.0356-9.7796-.192-13.1929-.1564-3.4062-.6969-5.7333-1.488-7.7689-.8035-2.13505-2.063-4.06918-3.6907-5.66754-1.5985-1.62742-3.5326-2.88687-5.6675-3.69067-2.0356-.79111-4.3627-1.33333-7.7707-1.487999-3.4115-.154667-4.4978-.192-13.1911-.192zm0 5.765329c8.544 0 9.5573.03378 12.9316.18667 3.12.14222 4.8142.66311 5.9413 1.10222 1.4933.57956 2.56 1.27467 3.68 2.39289 1.12 1.12 1.8133 2.1867 2.3929 3.68.4391 1.1271.96 2.8213 1.1022 5.9413.1529 3.3743.1867 4.3876.1867 12.9316s-.0338 9.5573-.1867 12.9315c-.1422 3.12-.6631 4.8143-1.1022 5.9414-.5126 1.3901-1.3303 2.6475-2.3929 3.68-1.12 1.12-2.1867 1.8133-3.68 2.3929-1.1271.4391-2.8213.96-5.9413 1.1022-3.3743.1529-4.3858.1867-12.9316.1867s-9.5573-.0338-12.9316-.1867c-3.12-.1422-4.8142-.6631-5.9413-1.1022-1.3901-.5126-2.6476-1.3303-3.67999-2.3929-1.06256-1.0325-1.88023-2.29-2.39289-3.68-.43911-1.1271-.96-2.8214-1.10222-5.9414-.15289-3.3742-.18667-4.3875-.18667-12.9315s.03378-9.5573.18667-12.9316c.14222-3.12.66311-4.8142 1.10222-5.9413.57956-1.4933 1.27467-2.56 2.39289-3.68 1.11999-1.12 2.18669-1.81333 3.67999-2.39289 1.1271-.43911 2.8213-.96 5.9413-1.10222 3.3743-.15289 4.3876-.18667 12.9316-.18667z"/><path d="m31.9998 43.3901c-1.4022 0-2.7906-.2761-4.0861-.8127-1.2954-.5366-2.4725-1.3231-3.464-2.3146-.9914-.9915-1.7779-2.1685-2.3145-3.464-.5366-1.2954-.8128-2.6838-.8128-4.086s.2762-2.7906.8128-4.086c.5366-1.2955 1.3231-2.4725 2.3145-3.464.9915-.9915 2.1686-1.778 3.464-2.3146 1.2955-.5366 2.6839-.8127 4.0861-.8127 2.8318 0 5.5476 1.1249 7.55 3.1273s3.1273 4.7182 3.1273 7.55-1.1249 5.5476-3.1273 7.55-4.7182 3.1273-7.55 3.1273zm0-27.1253c-4.3623 0-8.5459 1.7329-11.6305 4.8175s-4.8175 7.2682-4.8175 11.6305 1.7329 8.5459 4.8175 11.6305 7.2682 4.8175 11.6305 4.8175c4.3622 0 8.5459-1.7329 11.6305-4.8175s4.8175-7.2682 4.8175-11.6305-1.7329-8.5459-4.8175-11.6305-7.2683-4.8175-11.6305-4.8175zm21.2337-.2987c0 1.0312-.4096 2.0201-1.1387 2.7493-.7292.7291-1.7181 1.1387-2.7493 1.1387-1.0311 0-2.02-.4096-2.7492-1.1387-.7291-.7292-1.1388-1.7181-1.1388-2.7493 0-1.0311.4097-2.0201 1.1388-2.7492.7292-.7291 1.7181-1.1388 2.7492-1.1388 1.0312 0 2.0201.4097 2.7493 1.1388.7291.7291 1.1387 1.7181 1.1387 2.7492"/></g></svg>